<svg version="1.1" xmlns="http://www.w3.org/2000/svg" viewBox="0 0 2377.0476190476184 1022.7497267950139" width="2377.0476190476184" height="1022.7497267950139">
  <!-- svg-source:excalidraw -->
  
  <defs>
    <style class="style-fonts">
      @font-face {
        font-family: "Virgil";
        src: url("https://excalidraw.com/Virgil.woff2");
      }
      @font-face {
        font-family: "Cascadia";
        src: url("https://excalidraw.com/Cascadia.woff2");
      }
      @font-face {
        font-family: "Assistant";
        src: url("https://excalidraw.com/Assistant-Regular.woff2");
      }
    </style>
    
  </defs>
  <g stroke-opacity="0.6" fill-opacity="0.6" transform="translate(127.36883563410481 241.581558185291) rotate(0 32.8125 16.799999999999955)"><text x="0" y="27.0375" font-family="Cascadia, Segoe UI Emoji" font-size="28px" fill="#1971c2" text-anchor="start" style="white-space: pre;" direction="ltr" dominant-baseline="alphabetic">AZ A</text></g><g stroke-linecap="round" transform="translate(114.70243574623044 232.94014819164045) rotate(0 491 320.9999999999999)"><path d="M32 0 C319.41 0, 606.81 0, 950 0 M950 0 C971.33 0, 982 10.67, 982 32 M982 32 C982 225.68, 982 419.36, 982 610 M982 610 C982 631.33, 971.33 642, 950 642 M950 642 C725.29 642, 500.59 642, 32 642 M32 642 C10.67 642, 0 631.33, 0 610 M0 610 C0 492.19, 0 374.38, 0 32 M0 32 C0 10.67, 10.67 0, 32 0" stroke="#0c8599" stroke-width="1.5" fill="none" stroke-dasharray="8 9"></path></g><g stroke-linecap="round" transform="translate(1281.5238095238092 234.11877441406182) rotate(0 491 320.9999999999999)"><path d="M32 0 C254.92 0, 477.85 0, 950 0 M950 0 C971.33 0, 982 10.67, 982 32 M982 32 C982 262.74, 982 493.47, 982 610 M982 610 C982 631.33, 971.33 642, 950 642 M950 642 C648.97 642, 347.94 642, 32 642 M32 642 C10.67 642, 0 631.33, 0 610 M0 610 C0 458.67, 0 307.33, 0 32 M0 32 C0 10.67, 10.67 0, 32 0" stroke="#0c8599" stroke-width="1.5" fill="none" stroke-dasharray="8 9"></path></g><g stroke-opacity="0.6" fill-opacity="0.6" transform="translate(1292.3777094116836 242.76018440771236) rotate(0 32.8125 16.799999999999955)"><text x="0" y="27.0375" font-family="Cascadia, Segoe UI Emoji" font-size="28px" fill="#1971c2" text-anchor="start" style="white-space: pre;" direction="ltr" dominant-baseline="alphabetic">AZ B</text></g><g stroke-linecap="round" transform="translate(10 97.48782203310907) rotate(0 1178.5238095238092 457.6309523809524)"><path d="M32 0 C792.01 0, 1552.03 0, 2325.05 0 M32 0 C697.39 0, 1362.78 0, 2325.05 0 M2325.05 0 C2346.38 0, 2357.05 10.67, 2357.05 32 M2325.05 0 C2346.38 0, 2357.05 10.67, 2357.05 32 M2357.05 32 C2357.05 292.74, 2357.05 553.48, 2357.05 883.26 M2357.05 32 C2357.05 282.85, 2357.05 533.7, 2357.05 883.26 M2357.05 883.26 C2357.05 904.6, 2346.38 915.26, 2325.05 915.26 M2357.05 883.26 C2357.05 904.6, 2346.38 915.26, 2325.05 915.26 M2325.05 915.26 C1462.67 915.26, 600.29 915.26, 32 915.26 M2325.05 915.26 C1772.8 915.26, 1220.56 915.26, 32 915.26 M32 915.26 C10.67 915.26, 0 904.6, 0 883.26 M32 915.26 C10.67 915.26, 0 904.6, 0 883.26 M0 883.26 C0 644.46, 0 405.66, 0 32 M0 883.26 C0 560.64, 0 238.02, 0 32 M0 32 C0 10.67, 10.67 0, 32 0 M0 32 C0 10.67, 10.67 0, 32 0" stroke="#2f9e44" stroke-width="1" fill="none"></path></g><g stroke-opacity="0.5" fill-opacity="0.5" transform="translate(116.62473113302224 129.5504029587944) rotate(0 26.21612548828125 17.898200973836765)"><text x="26.21612548828125" y="28.804917192268565" font-family="Cascadia, Segoe UI Emoji" font-size="29.830334956394633px" fill="#2f9e44" text-anchor="middle" style="white-space: pre;" direction="ltr" dominant-baseline="alphabetic">VPC</text></g><g stroke-opacity="0.5" fill-opacity="0.5" stroke-linecap="round" transform="translate(12.150055658247538 98.91402172771814) rotate(0 48.53458220491291 48.53458220491291)"><path d="M24.27 0 C36 0, 47.74 0, 72.8 0 M24.27 0 C39.12 0, 53.97 0, 72.8 0 M72.8 0 C88.98 0, 97.07 8.09, 97.07 24.27 M72.8 0 C88.98 0, 97.07 8.09, 97.07 24.27 M97.07 24.27 C97.07 42.69, 97.07 61.11, 97.07 72.8 M97.07 24.27 C97.07 38.81, 97.07 53.36, 97.07 72.8 M97.07 72.8 C97.07 88.98, 88.98 97.07, 72.8 97.07 M97.07 72.8 C97.07 88.98, 88.98 97.07, 72.8 97.07 M72.8 97.07 C55.8 97.07, 38.8 97.07, 24.27 97.07 M72.8 97.07 C58.31 97.07, 43.82 97.07, 24.27 97.07 M24.27 97.07 C8.09 97.07, 0 88.98, 0 72.8 M24.27 97.07 C8.09 97.07, 0 88.98, 0 72.8 M0 72.8 C0 57.1, 0 41.4, 0 24.27 M0 72.8 C0 56.98, 0 41.17, 0 24.27 M0 24.27 C0 8.09, 8.09 0, 24.27 0 M0 24.27 C0 8.09, 8.09 0, 24.27 0" stroke="#2f9e44" stroke-width="2" fill="none"></path></g><g stroke-linecap="round"><g stroke-opacity="0.5" fill-opacity="0.5" transform="translate(101.35545558923775 138.37483825462482) rotate(0 -40.446803361861726 -4.157281279156791)"><path d="M0 0 C-0.61 -0.96, -1.87 -4.49, -3.67 -5.79 C-5.47 -7.08, -9.47 -7.23, -10.79 -7.78 C-12.11 -8.34, -11.22 -7.92, -11.59 -9.13 C-11.97 -10.33, -11.69 -13.57, -13.05 -15 C-14.41 -16.44, -17.62 -17.95, -19.76 -17.76 C-21.9 -17.57, -24.76 -14.43, -25.89 -13.88 C-27.02 -13.34, -24.87 -12.73, -26.55 -14.5 C-28.23 -16.27, -32.1 -22.09, -35.97 -24.49 C-39.83 -26.89, -45.3 -29.11, -49.77 -28.92 C-54.23 -28.72, -59.57 -26.58, -62.76 -23.3 C-65.95 -20.02, -67.73 -11.98, -68.92 -9.25 C-70.1 -6.52, -68.16 -8.3, -69.89 -6.92 C-71.61 -5.54, -77.44 -3.99, -79.27 -0.96 C-81.11 2.07, -81.92 7.82, -80.89 11.27 C-79.87 14.72, -75.96 18.2, -73.14 19.73 C-70.31 21.27, -67.36 20.34, -63.94 20.48 C-60.52 20.63, -55.77 20.61, -52.62 20.6 C-49.47 20.59, -46.29 20.46, -45.03 20.43 M0 0 C-0.61 -0.96, -1.87 -4.49, -3.67 -5.79 C-5.47 -7.08, -9.47 -7.23, -10.79 -7.78 C-12.11 -8.34, -11.22 -7.92, -11.59 -9.13 C-11.97 -10.33, -11.69 -13.57, -13.05 -15 C-14.41 -16.44, -17.62 -17.95, -19.76 -17.76 C-21.9 -17.57, -24.76 -14.43, -25.89 -13.88 C-27.02 -13.34, -24.87 -12.73, -26.55 -14.5 C-28.23 -16.27, -32.1 -22.09, -35.97 -24.49 C-39.83 -26.89, -45.3 -29.11, -49.77 -28.92 C-54.23 -28.72, -59.57 -26.58, -62.76 -23.3 C-65.95 -20.02, -67.73 -11.98, -68.92 -9.25 C-70.1 -6.52, -68.16 -8.3, -69.89 -6.92 C-71.61 -5.54, -77.44 -3.99, -79.27 -0.96 C-81.11 2.07, -81.92 7.82, -80.89 11.27 C-79.87 14.72, -75.96 18.2, -73.14 19.73 C-70.31 21.27, -67.36 20.34, -63.94 20.48 C-60.52 20.63, -55.77 20.61, -52.62 20.6 C-49.47 20.59, -46.29 20.46, -45.03 20.43" stroke="#2f9e44" stroke-width="2" fill="none"></path></g></g><mask></mask><g stroke-linecap="round"><g stroke-opacity="0.5" fill-opacity="0.5" transform="translate(64.22339920842273 143.12051169665324) rotate(0 18.517696489868058 -3.7035392979736343)"><path d="M0 0 C2.92 -1.23, 11.37 -7.41, 17.54 -7.41 C23.72 -7.41, 33.79 -1.23, 37.04 0 M0 0 C2.92 -1.23, 11.37 -7.41, 17.54 -7.41 C23.72 -7.41, 33.79 -1.23, 37.04 0" stroke="#2f9e44" stroke-width="2" fill="none"></path></g></g><mask></mask><g stroke-linecap="round"><g stroke-opacity="0.5" fill-opacity="0.5" transform="translate(63.44370672463879 143.34189410842987) rotate(0 18.90754273176003 21.051697062165772)"><path d="M0 0 C0 3.57, -0.06 16.7, 0 21.44 C0.06 26.18, -0.26 26.31, 0.39 28.46 C1.04 30.6, 2.6 32.62, 3.9 34.31 C5.2 36, 6.69 37.56, 8.19 38.59 C9.68 39.63, 10.98 39.96, 12.86 40.54 C14.75 41.13, 17.41 42.04, 19.49 42.1 C21.57 42.17, 23.59 41.58, 25.34 40.93 C27.09 40.28, 28.46 39.63, 30.02 38.2 C31.58 36.78, 33.53 34.57, 34.7 32.36 C35.87 30.15, 36.58 26.9, 37.04 24.95 C37.49 23, 37.3 24.82, 37.43 20.66 C37.56 16.5, 37.75 3.44, 37.82 0 M0 0 C0 3.57, -0.06 16.7, 0 21.44 C0.06 26.18, -0.26 26.31, 0.39 28.46 C1.04 30.6, 2.6 32.62, 3.9 34.31 C5.2 36, 6.69 37.56, 8.19 38.59 C9.68 39.63, 10.98 39.96, 12.86 40.54 C14.75 41.13, 17.41 42.04, 19.49 42.1 C21.57 42.17, 23.59 41.58, 25.34 40.93 C27.09 40.28, 28.46 39.63, 30.02 38.2 C31.58 36.78, 33.53 34.57, 34.7 32.36 C35.87 30.15, 36.58 26.9, 37.04 24.95 C37.49 23, 37.3 24.82, 37.43 20.66 C37.56 16.5, 37.75 3.44, 37.82 0" stroke="#2f9e44" stroke-width="2" fill="none"></path></g></g><mask></mask><g stroke-linecap="round"><g stroke-opacity="0.5" fill-opacity="0.5" transform="translate(71.24063156247803 149.18958773681152) rotate(0 10.91569477297486 -2.339077451351727)"><path d="M0 0 C1.88 -0.78, 7.67 -4.55, 11.31 -4.68 C14.94 -4.81, 20.08 -1.43, 21.83 -0.78 M0 0 C1.88 -0.78, 7.67 -4.55, 11.31 -4.68 C14.94 -4.81, 20.08 -1.43, 21.83 -0.78" stroke="#2f9e44" stroke-width="2" fill="none"></path></g></g><mask></mask><g stroke-linecap="round"><g stroke-opacity="0.5" fill-opacity="0.5" transform="translate(82.54617257734469 178.03820963681733) rotate(0 0 -16.76338840135429)"><path d="M0 0 C0 -5.59, 0 -27.94, 0 -33.53 M0 0 C0 -5.59, 0 -27.94, 0 -33.53" stroke="#2f9e44" stroke-width="2" fill="none"></path></g></g><mask></mask><g stroke-linecap="round"><g stroke-opacity="0.5" fill-opacity="0.5" transform="translate(82.15632633545295 178.03820963681733) rotate(0 -5.262924265541471 -14.619234070948437)"><path d="M0 0 C-0.97 -0.26, -4.09 -0.45, -5.85 -1.56 C-7.6 -2.66, -9.75 -2.01, -10.53 -6.63 C-11.31 -11.24, -10.53 -25.47, -10.53 -29.24 M0 0 C-0.97 -0.26, -4.09 -0.45, -5.85 -1.56 C-7.6 -2.66, -9.75 -2.01, -10.53 -6.63 C-11.31 -11.24, -10.53 -25.47, -10.53 -29.24" stroke="#2f9e44" stroke-width="2" fill="none"></path></g></g><mask></mask><g stroke-linecap="round"><g stroke-opacity="0.5" fill-opacity="0.5" transform="translate(82.7410956982909 178.23313275776286) rotate(0 5.262924265541471 -14.619234070948437)"><path d="M0 0 C0.97 -0.26, 4.09 -0.45, 5.85 -1.56 C7.6 -2.66, 9.75 -2.01, 10.53 -6.63 C11.31 -11.24, 10.53 -25.47, 10.53 -29.24 M0 0 C0.97 -0.26, 4.09 -0.45, 5.85 -1.56 C7.6 -2.66, 9.75 -2.01, 10.53 -6.63 C11.31 -11.24, 10.53 -25.47, 10.53 -29.24" stroke="#2f9e44" stroke-width="2" fill="none"></path></g></g><mask></mask><g transform="translate(1160.9206601097467 160.7835315725688) rotate(0 27.603149414062514 18.849809920638222)"><text x="0" y="30.3364128410272" font-family="Cascadia, Segoe UI Emoji" font-size="31.416349867730435px" fill="#2f9e44" text-anchor="start" style="white-space: pre;" direction="ltr" dominant-baseline="alphabetic">IGW</text></g><g stroke-linecap="round" transform="translate(1113.8904680306023 10) rotate(0 74.6333414932069 74.6333414932069)"><path d="M15.97 28.46 C15.97 28.46, 15.97 28.46, 15.97 28.46 M15.97 28.46 C15.97 28.46, 15.97 28.46, 15.97 28.46 M3.64 54.84 C19.32 36.8, 35 18.76, 44.97 7.29 M3.64 54.84 C19.37 36.74, 35.1 18.65, 44.97 7.29 M1.15 69.9 C22.75 45.05, 44.36 20.19, 60.19 1.97 M1.15 69.9 C21.86 46.08, 42.57 22.25, 60.19 1.97 M1.28 81.94 C26.96 52.39, 52.65 22.85, 72.14 0.43 M1.28 81.94 C17.37 63.44, 33.45 44.93, 72.14 0.43 M2.73 92.47 C23.17 68.96, 43.61 45.44, 82.77 0.4 M2.73 92.47 C21.2 71.22, 39.67 49.98, 82.77 0.4 M5.48 101.49 C23.28 81.02, 41.08 60.54, 91.43 2.63 M5.48 101.49 C27.98 75.61, 50.48 49.73, 91.43 2.63 M8.9 109.76 C33.7 81.23, 58.5 52.7, 100.09 4.86 M8.9 109.76 C30.12 85.35, 51.34 60.94, 100.09 4.86 M12.97 117.27 C42.64 83.14, 72.3 49.01, 108.1 7.84 M12.97 117.27 C41.81 84.1, 70.65 50.92, 108.1 7.84 M18.35 123.28 C38.78 99.77, 59.21 76.27, 114.79 12.33 M18.35 123.28 C39.04 99.47, 59.73 75.67, 114.79 12.33 M23.73 129.28 C62.41 84.79, 101.08 40.3, 121.48 16.83 M23.73 129.28 C55.41 92.84, 87.09 56.4, 121.48 16.83 M29.77 134.53 C53.37 107.37, 76.98 80.21, 127.52 22.08 M29.77 134.53 C62.92 96.39, 96.08 58.25, 127.52 22.08 M36.46 139.02 C74.81 94.91, 113.15 50.8, 132.9 28.08 M36.46 139.02 C70.42 99.96, 104.37 60.9, 132.9 28.08 M43.81 142.76 C81.13 99.83, 118.45 56.9, 137.63 34.84 M43.81 142.76 C78.9 102.4, 113.98 62.04, 137.63 34.84 M51.82 145.74 C85.97 106.46, 120.12 67.17, 142.35 41.59 M51.82 145.74 C85.27 107.26, 118.73 68.78, 142.35 41.59 M60.48 147.97 C84.85 119.94, 109.21 91.91, 145.11 50.62 M60.48 147.97 C93.58 109.9, 126.68 71.82, 145.11 50.62 M70.45 148.69 C87.05 129.6, 103.64 110.51, 147.87 59.64 M70.45 148.69 C86.97 129.69, 103.49 110.69, 147.87 59.64 M80.43 149.41 C107.5 118.27, 134.57 87.13, 149.97 69.42 M80.43 149.41 C99.02 128.02, 117.62 106.63, 149.97 69.42 M93.03 147.12 C110.26 127.29, 127.5 107.46, 148.79 82.97 M93.03 147.12 C108.38 129.46, 123.73 111.8, 148.79 82.97 M107.59 142.55 C120.67 127.51, 133.75 112.47, 144.99 99.54 M107.59 142.55 C121.97 126.02, 136.34 109.48, 144.99 99.54 M27.76 132.69 C27.76 132.69, 27.76 132.69, 27.76 132.69 M27.76 132.69 C27.76 132.69, 27.76 132.69, 27.76 132.69 M54.89 145.67 C41.23 133.8, 27.58 121.93, 7.35 104.34 M54.89 145.67 C39.29 132.11, 23.68 118.54, 7.35 104.34 M69.95 148.17 C51.37 132.02, 32.8 115.87, 2.03 89.12 M69.95 148.17 C43.22 124.93, 16.49 101.69, 2.03 89.12 M81.99 148.03 C58.33 127.46, 34.66 106.89, 0.49 77.18 M81.99 148.03 C50.22 120.41, 18.44 92.78, 0.49 77.18 M92.53 146.59 C69.97 126.98, 47.41 107.37, 0.45 66.55 M92.53 146.59 C64.29 122.04, 36.05 97.5, 0.45 66.55 M101.55 143.83 C69.9 116.32, 38.25 88.8, 1.93 57.23 M101.55 143.83 C75.16 120.89, 48.77 97.95, 1.93 57.23 M109.81 140.42 C80.69 115.1, 51.56 89.78, 4.91 49.22 M109.81 140.42 C72.95 108.37, 36.08 76.32, 4.91 49.22 M116.57 135.69 C84.15 107.51, 51.73 79.32, 7.89 41.22 M116.57 135.69 C78.15 102.29, 39.73 68.89, 7.89 41.22 M123.33 130.97 C93.01 104.61, 62.7 78.26, 12.39 34.53 M123.33 130.97 C79.73 93.07, 36.13 55.17, 12.39 34.53 M129.33 125.58 C103.29 102.95, 77.25 80.31, 16.88 27.83 M129.33 125.58 C100.01 100.1, 70.69 74.61, 16.88 27.83 M134.58 119.55 C106.05 94.74, 77.51 69.93, 22.13 21.79 M134.58 119.55 C106.34 95, 78.11 70.45, 22.13 21.79 M139.08 112.85 C107.22 85.16, 75.37 57.47, 28.13 16.41 M139.08 112.85 C106.22 84.29, 73.35 55.72, 28.13 16.41 M142.82 105.5 C114.59 80.97, 86.37 56.44, 34.89 11.69 M142.82 105.5 C121.2 86.71, 99.58 67.92, 34.89 11.69 M145.8 97.5 C114.04 69.89, 82.29 42.29, 41.65 6.96 M145.8 97.5 C106.83 63.62, 67.85 29.74, 41.65 6.96 M148.03 88.84 C122.61 66.74, 97.19 44.64, 49.92 3.55 M148.03 88.84 C121.57 65.83, 95.11 42.83, 49.92 3.55 M148.75 78.86 C122.46 56.01, 96.17 33.16, 59.69 1.45 M148.75 78.86 C120.8 54.57, 92.86 30.28, 59.69 1.45 M149.47 68.89 C131.12 52.93, 112.76 36.98, 69.47 -0.66 M149.47 68.89 C122.01 45.02, 94.56 21.15, 69.47 -0.66 M147.17 56.29 C125.45 37.41, 103.73 18.53, 83.02 0.52 M147.17 56.29 C125.44 37.4, 103.72 18.52, 83.02 0.52 M142.61 41.72 C130.74 31.41, 118.88 21.1, 99.59 4.33 M142.61 41.72 C131.45 32.02, 120.29 22.32, 99.59 4.33" stroke="#2f9e44" stroke-width="1" fill="none"></path><path d="M149.27 74.63 C149.27 77.42, 149.11 80.22, 148.8 82.99 C148.49 85.76, 148.02 88.53, 147.4 91.24 C146.78 93.96, 146 96.65, 145.08 99.28 C144.16 101.91, 143.08 104.51, 141.88 107.02 C140.67 109.53, 139.31 111.98, 137.83 114.34 C136.35 116.7, 134.72 118.99, 132.98 121.17 C131.25 123.34, 129.38 125.44, 127.41 127.41 C125.44 129.38, 123.34 131.25, 121.17 132.98 C118.99 134.72, 116.7 136.35, 114.34 137.83 C111.98 139.31, 109.53 140.67, 107.02 141.88 C104.51 143.08, 101.91 144.16, 99.28 145.08 C96.65 146, 93.96 146.78, 91.24 147.4 C88.53 148.02, 85.76 148.49, 82.99 148.8 C80.22 149.11, 77.42 149.27, 74.63 149.27 C71.85 149.27, 69.04 149.11, 66.28 148.8 C63.51 148.49, 60.74 148.02, 58.03 147.4 C55.31 146.78, 52.61 146, 49.98 145.08 C47.35 144.16, 44.76 143.08, 42.25 141.88 C39.74 140.67, 37.28 139.31, 34.93 137.83 C32.57 136.35, 30.28 134.72, 28.1 132.98 C25.92 131.25, 23.83 129.38, 21.86 127.41 C19.89 125.44, 18.02 123.34, 16.28 121.17 C14.55 118.99, 12.92 116.7, 11.44 114.34 C9.96 111.98, 8.6 109.53, 7.39 107.02 C6.18 104.51, 5.11 101.91, 4.19 99.28 C3.27 96.65, 2.49 93.96, 1.87 91.24 C1.25 88.53, 0.78 85.76, 0.47 82.99 C0.16 80.22, 0 77.42, 0 74.63 C0 71.85, 0.16 69.04, 0.47 66.28 C0.78 63.51, 1.25 60.74, 1.87 58.03 C2.49 55.31, 3.27 52.61, 4.19 49.98 C5.11 47.35, 6.18 44.76, 7.39 42.25 C8.6 39.74, 9.96 37.28, 11.44 34.93 C12.92 32.57, 14.55 30.28, 16.28 28.1 C18.02 25.92, 19.89 23.83, 21.86 21.86 C23.83 19.89, 25.92 18.02, 28.1 16.28 C30.28 14.55, 32.57 12.92, 34.93 11.44 C37.28 9.96, 39.74 8.6, 42.25 7.39 C44.76 6.18, 47.35 5.11, 49.98 4.19 C52.61 3.27, 55.31 2.49, 58.03 1.87 C60.74 1.25, 63.51 0.78, 66.28 0.47 C69.04 0.16, 71.85 0, 74.63 0 C77.42 0, 80.22 0.16, 82.99 0.47 C85.76 0.78, 88.53 1.25, 91.24 1.87 C93.96 2.49, 96.65 3.27, 99.28 4.19 C101.91 5.11, 104.51 6.18, 107.02 7.39 C109.53 8.6, 111.98 9.96, 114.34 11.44 C116.7 12.92, 118.99 14.55, 121.17 16.28 C123.34 18.02, 125.44 19.89, 127.41 21.86 C129.38 23.83, 131.25 25.92, 132.98 28.1 C134.72 30.28, 136.35 32.57, 137.83 34.93 C139.31 37.28, 140.67 39.74, 141.88 42.25 C143.08 44.76, 144.16 47.35, 145.08 49.98 C146 52.61, 146.78 55.31, 147.4 58.03 C148.02 60.74, 148.49 63.51, 148.8 66.28 C149.11 69.04, 149.19 73.24, 149.27 74.63 C149.34 76.03, 149.34 73.24, 149.27 74.63" stroke="#2f9e44" stroke-width="2" fill="none"></path></g><g stroke-linecap="round"><g transform="translate(1147.2308883012936 125.18805638205731) rotate(0 42.15119030968977 -43.533196549351715)"><path d="M0 0 C0.23 -12.9, -7.6 -62.65, 1.38 -77.39 C10.37 -92.13, 40.31 -88.91, 53.9 -88.45 C67.49 -87.99, 77.85 -89.6, 82.92 -74.63 C87.99 -59.66, 84.07 -11.29, 84.3 1.38 M0 0 C0.23 -12.9, -7.6 -62.65, 1.38 -77.39 C10.37 -92.13, 40.31 -88.91, 53.9 -88.45 C67.49 -87.99, 77.85 -89.6, 82.92 -74.63 C87.99 -59.66, 84.07 -11.29, 84.3 1.38" stroke="#7950f288" stroke-width="1" fill="none"></path></g></g><mask></mask><g stroke-linecap="round"><g transform="translate(1223.6558333546006 126.57006262171853) rotate(0 2.764012479324066 0)"><path d="M0 0 C0.92 0, 4.61 0, 5.53 0 M0 0 C0.92 0, 4.61 0, 5.53 0" stroke="#7950f288" stroke-width="2" fill="none"></path></g></g><mask></mask><g stroke-linecap="round"><g transform="translate(1150.271302028549 124.3588526382614) rotate(0 2.764012479324066 0)"><path d="M0 0 C0.92 0, 4.61 0, 5.53 0 M0 0 C0.92 0, 4.61 0, 5.53 0" stroke="#7950f288" stroke-width="2" fill="none"></path></g></g><mask></mask><g stroke-linecap="round"><g transform="translate(1156.404645720172 124.66601558999264) rotate(0 32.93061742944512 -38.21088322475805)"><path d="M0 0 C0.18 -11.32, -5.94 -54.99, 1.08 -67.93 C8.1 -80.87, 31.49 -78.04, 42.11 -77.63 C52.72 -77.23, 60.82 -78.65, 64.78 -65.5 C68.74 -52.36, 65.68 -9.91, 65.86 1.21 M0 0 C0.18 -11.32, -5.94 -54.99, 1.08 -67.93 C8.1 -80.87, 31.49 -78.04, 42.11 -77.63 C52.72 -77.23, 60.82 -78.65, 64.78 -65.5 C68.74 -52.36, 65.68 -9.91, 65.86 1.21" stroke="#7950f288" stroke-width="2" fill="none"></path></g></g><mask></mask><g transform="translate(1150.6215655157291 120.90512734692697) rotate(0 38.77206298336874 -39.133293383834825)" stroke="none"><path fill="#7950f288" d="M -2.51,-0.62 Q -2.51,-0.62 -2.34,-1.46 -2.17,-2.31 -2.29,-3.58 -2.40,-4.85 -2.60,-6.03 -2.81,-7.22 -3.10,-8.39 -3.39,-9.57 -3.56,-10.95 -3.74,-12.33 -3.92,-13.56 -4.10,-14.79 -4.15,-16.16 -4.20,-17.54 -4.23,-18.75 -4.26,-19.96 -4.26,-21.54 -4.27,-23.11 -4.27,-24.18 -4.28,-25.25 -4.30,-26.40 -4.32,-27.55 -4.22,-29.21 -4.12,-30.87 -4.09,-32.00 -4.07,-33.14 -4.07,-34.38 -4.08,-35.61 -4.09,-36.84 -4.10,-38.06 -4.12,-39.39 -4.14,-40.73 -4.16,-41.88 -4.17,-43.03 -4.19,-44.22 -4.20,-45.41 -4.21,-46.58 -4.22,-47.76 -3.95,-49.21 -3.69,-50.67 -3.44,-51.82 -3.19,-52.97 -2.72,-54.60 -2.25,-56.23 -1.84,-57.32 -1.42,-58.40 -0.88,-59.75 -0.34,-61.10 0.15,-62.69 0.65,-64.27 1.23,-65.72 1.82,-67.16 2.38,-68.19 2.94,-69.21 3.67,-70.53 4.40,-71.84 5.03,-72.94 5.66,-74.03 6.75,-74.84 7.85,-75.64 9.17,-76.73 10.50,-77.83 11.64,-78.45 12.77,-79.08 13.89,-79.53 15.00,-79.98 16.25,-80.32 17.51,-80.67 18.92,-81.10 20.34,-81.53 21.65,-81.68 22.97,-81.83 24.39,-82.18 25.80,-82.53 27.13,-82.56 28.45,-82.58 29.93,-82.55 31.40,-82.51 32.49,-82.51 33.59,-82.51 34.91,-82.49 36.24,-82.46 38.02,-82.44 39.80,-82.42 41.73,-82.45 43.67,-82.48 45.05,-82.52 46.44,-82.55 47.59,-82.48 48.73,-82.40 50.64,-82.35 52.54,-82.30 54.05,-82.28 55.56,-82.26 57.14,-82.09 58.73,-81.92 60.59,-81.54 62.46,-81.15 63.66,-80.97 64.86,-80.78 66.27,-80.25 67.67,-79.72 68.66,-79.34 69.65,-78.95 70.60,-78.37 71.55,-77.79 72.52,-76.79 73.49,-75.78 73.92,-74.78 74.35,-73.78 74.93,-72.70 75.51,-71.63 75.98,-70.52 76.45,-69.41 76.84,-68.30 77.23,-67.19 77.62,-65.94 78.01,-64.69 78.53,-63.20 79.06,-61.71 79.20,-60.51 79.34,-59.30 79.54,-57.95 79.74,-56.59 79.89,-55.46 80.03,-54.32 80.36,-52.66 80.70,-50.99 80.76,-49.87 80.82,-48.75 81.02,-47.64 81.23,-46.54 81.47,-45.39 81.71,-44.23 81.87,-42.77 82.02,-41.30 82.03,-40.08 82.05,-38.86 81.88,-37.25 81.71,-35.64 81.60,-34.21 81.50,-32.78 81.44,-31.58 81.38,-30.38 81.38,-29.16 81.37,-27.95 81.21,-26.76 81.04,-25.57 81.08,-24.51 81.12,-23.44 80.85,-21.98 80.59,-20.52 80.47,-19.04 80.34,-17.55 80.32,-16.40 80.30,-15.26 80.28,-13.58 80.26,-11.90 80.27,-10.71 80.27,-9.52 80.28,-8.35 80.29,-7.19 80.00,-5.68 79.71,-4.18 79.89,-1.76 80.07,0.64 79.98,1.24 79.88,1.84 79.59,2.37 79.31,2.90 78.87,3.32 78.43,3.74 77.88,3.99 77.34,4.24 76.73,4.31 76.13,4.37 75.54,4.24 74.95,4.11 74.43,3.80 73.91,3.49 73.52,3.03 73.13,2.57 72.91,2.01 72.68,1.44 72.65,0.84 72.62,0.24 72.78,-0.34 72.94,-0.92 73.28,-1.42 73.62,-1.92 74.10,-2.29 74.58,-2.65 75.16,-2.85 75.73,-3.04 76.34,-3.04 76.94,-3.04 77.51,-2.85 78.09,-2.65 78.57,-2.29 79.05,-1.92 79.39,-1.42 79.73,-0.92 79.89,-0.34 80.05,0.24 80.02,0.84 79.99,1.45 79.76,2.01 79.54,2.57 79.15,3.03 78.75,3.49 78.24,3.80 77.72,4.12 77.13,4.25 76.54,4.37 75.94,4.31 75.33,4.24 74.78,3.99 74.24,3.74 73.80,3.32 73.36,2.90 73.07,2.37 72.79,1.83 72.69,1.24 72.60,0.64 72.60,0.64 72.60,0.64 72.60,-2.09 72.61,-4.83 72.73,-6.01 72.86,-7.19 72.87,-8.35 72.88,-9.52 72.88,-10.71 72.89,-11.90 72.87,-13.59 72.85,-15.28 72.84,-16.44 72.83,-17.61 72.85,-19.13 72.86,-20.66 73.17,-22.06 73.48,-23.46 73.49,-25.01 73.49,-26.56 73.60,-27.68 73.71,-28.81 73.71,-30.23 73.71,-31.65 73.85,-32.72 73.99,-33.78 74.12,-35.09 74.24,-36.41 74.36,-37.63 74.48,-38.86 74.60,-40.09 74.73,-41.32 74.42,-42.79 74.11,-44.27 73.79,-45.29 73.47,-46.31 73.38,-47.83 73.29,-49.35 73.14,-50.50 72.98,-51.65 72.69,-52.88 72.39,-54.11 72.23,-55.35 72.08,-56.59 71.96,-58.32 71.84,-60.04 71.19,-61.60 70.55,-63.16 70.26,-64.31 69.98,-65.46 69.53,-66.42 69.07,-67.39 68.82,-68.51 68.58,-69.64 68.09,-70.77 67.61,-71.90 66.50,-72.55 65.39,-73.20 64.20,-73.66 63.01,-74.13 61.15,-74.40 59.30,-74.68 57.93,-74.95 56.56,-75.22 55.36,-75.22 54.17,-75.22 52.36,-75.19 50.56,-75.15 49.28,-75.22 48.01,-75.29 46.50,-75.35 45.00,-75.42 43.66,-75.36 42.33,-75.31 41.06,-75.19 39.80,-75.07 38.40,-75.04 37.00,-75.02 35.88,-75.01 34.77,-74.99 33.61,-74.98 32.45,-74.97 31.34,-74.96 30.24,-74.96 28.35,-74.98 26.46,-75.00 25.07,-74.61 23.67,-74.22 22.09,-73.91 20.52,-73.60 19.04,-73.15 17.57,-72.71 16.49,-72.36 15.41,-72.01 14.41,-71.59 13.41,-71.16 12.62,-70.34 11.83,-69.52 11.13,-68.24 10.43,-66.97 9.89,-66.00 9.35,-65.03 8.71,-63.85 8.06,-62.66 7.73,-61.60 7.40,-60.54 6.86,-59.02 6.32,-57.50 5.86,-56.27 5.41,-55.03 5.02,-53.97 4.63,-52.91 4.28,-51.65 3.93,-50.40 3.59,-49.01 3.25,-47.63 3.25,-46.52 3.24,-45.41 3.22,-44.22 3.21,-43.03 3.19,-41.88 3.18,-40.73 3.16,-39.39 3.14,-38.06 3.13,-36.83 3.12,-35.61 3.10,-34.34 3.09,-33.07 3.02,-31.55 2.95,-30.02 2.91,-28.78 2.87,-27.55 2.85,-26.40 2.83,-25.25 2.83,-24.18 2.82,-23.11 2.82,-21.89 2.82,-20.67 2.80,-19.46 2.77,-18.25 2.74,-16.90 2.70,-15.56 2.79,-14.47 2.87,-13.38 2.81,-12.22 2.74,-11.06 2.95,-9.87 3.16,-8.68 3.31,-7.21 3.45,-5.73 3.46,-4.55 3.47,-3.36 3.24,-2.19 3.01,-1.01 2.76,-0.19 2.51,0.62 2.40,0.92 2.29,1.21 2.11,1.46 1.93,1.72 1.70,1.93 1.46,2.13 1.18,2.28 0.91,2.42 0.60,2.50 0.30,2.57 -0.00,2.57 -0.32,2.57 -0.62,2.49 -0.92,2.42 -1.20,2.27 -1.48,2.12 -1.71,1.92 -1.94,1.71 -2.12,1.45 -2.30,1.19 -2.41,0.90 -2.51,0.61 -2.55,0.30 -2.59,-0.00 -2.55,-0.31 -2.51,-0.62 -2.51,-0.62 L -2.51,-0.62 Z"></path></g><g transform="translate(1154.9988417544996 123.32578728401973) rotate(0 35.29085880266534 -41.750649912979725)" stroke="none"><path fill="#7950f288" d="M -2.44,0.61 Q -2.44,0.61 -2.68,-0.15 -2.92,-0.93 -3.28,-2.13 -3.64,-3.34 -4.00,-4.85 -4.36,-6.36 -4.67,-7.78 -4.99,-9.20 -5.10,-10.39 -5.21,-11.58 -5.25,-12.67 -5.29,-13.76 -5.39,-14.91 -5.49,-16.05 -5.52,-17.20 -5.56,-18.35 -5.59,-19.78 -5.62,-21.21 -5.63,-22.50 -5.65,-23.78 -5.67,-24.91 -5.68,-26.03 -5.70,-27.27 -5.71,-28.50 -5.72,-29.74 -5.74,-30.98 -5.75,-32.40 -5.76,-33.82 -5.72,-35.40 -5.69,-36.97 -5.69,-38.24 -5.70,-39.50 -5.67,-40.94 -5.64,-42.38 -5.64,-43.57 -5.63,-44.77 -5.65,-46.22 -5.66,-47.68 -5.78,-48.97 -5.89,-50.25 -5.98,-51.34 -6.06,-52.42 -6.23,-53.69 -6.41,-54.96 -6.46,-56.13 -6.51,-57.30 -6.80,-58.88 -7.10,-60.46 -7.17,-61.53 -7.25,-62.60 -7.26,-63.85 -7.27,-65.11 -7.21,-66.74 -7.16,-68.36 -7.05,-69.45 -6.95,-70.53 -6.85,-71.63 -6.74,-72.74 -6.34,-73.90 -5.95,-75.05 -5.35,-76.37 -4.75,-77.68 -3.82,-78.91 -2.89,-80.15 -2.00,-80.75 -1.12,-81.35 -0.03,-81.94 1.05,-82.52 2.07,-82.89 3.10,-83.26 4.39,-83.62 5.68,-83.99 6.91,-84.28 8.14,-84.56 9.54,-84.92 10.95,-85.27 12.20,-85.67 13.45,-86.07 14.64,-86.26 15.82,-86.46 17.31,-86.71 18.79,-86.96 19.85,-87.10 20.90,-87.25 22.43,-87.26 23.97,-87.27 25.05,-87.28 26.14,-87.28 27.39,-87.26 28.64,-87.24 30.19,-87.20 31.73,-87.15 32.79,-87.02 33.84,-86.89 35.15,-86.86 36.45,-86.83 38.05,-86.82 39.65,-86.81 40.92,-86.79 42.20,-86.77 43.44,-86.78 44.67,-86.79 45.75,-86.80 46.82,-86.81 48.31,-86.50 49.80,-86.19 51.00,-86.00 52.19,-85.80 53.28,-85.69 54.38,-85.58 55.52,-85.46 56.67,-85.35 58.06,-85.23 59.46,-85.11 61.18,-84.83 62.89,-84.56 64.16,-84.35 65.44,-84.14 66.84,-83.63 68.25,-83.12 69.76,-82.15 71.27,-81.19 72.10,-79.86 72.94,-78.53 73.44,-77.43 73.94,-76.33 74.55,-75.09 75.16,-73.85 75.59,-72.85 76.02,-71.85 76.31,-70.64 76.60,-69.43 76.61,-68.32 76.63,-67.22 76.70,-65.94 76.77,-64.67 76.94,-63.58 77.11,-62.49 77.30,-61.24 77.49,-60.00 77.54,-58.78 77.59,-57.55 77.59,-56.39 77.59,-55.22 77.58,-54.07 77.58,-52.92 77.59,-51.65 77.59,-50.38 77.59,-49.29 77.59,-48.20 77.59,-46.93 77.59,-45.66 77.59,-44.50 77.59,-43.33 77.58,-42.11 77.57,-40.90 77.57,-39.73 77.57,-38.57 77.55,-37.25 77.53,-35.93 77.52,-34.80 77.52,-33.67 77.52,-32.39 77.53,-31.11 77.48,-29.92 77.43,-28.73 77.21,-27.65 76.98,-26.58 76.65,-25.16 76.31,-23.74 76.38,-22.38 76.45,-21.02 76.46,-19.94 76.46,-18.86 76.47,-17.76 76.47,-16.67 76.73,-15.36 76.98,-14.04 77.07,-12.89 77.17,-11.73 77.29,-10.66 77.42,-9.59 77.67,-8.28 77.93,-6.98 77.96,-5.76 77.99,-4.55 77.81,-2.27 77.63,-0.00 77.40,0.57 77.16,1.15 76.74,1.63 76.33,2.10 75.79,2.42 75.25,2.74 74.63,2.86 74.02,2.99 73.40,2.92 72.77,2.84 72.21,2.57 71.64,2.30 71.19,1.86 70.74,1.43 70.45,0.87 70.16,0.31 70.07,-0.30 69.98,-0.92 70.08,-1.54 70.19,-2.16 70.49,-2.71 70.79,-3.26 71.26,-3.69 71.72,-4.11 72.29,-4.37 72.86,-4.63 73.49,-4.69 74.11,-4.75 74.72,-4.60 75.33,-4.46 75.87,-4.13 76.40,-3.80 76.80,-3.32 77.20,-2.84 77.43,-2.25 77.65,-1.66 77.68,-1.04 77.71,-0.41 77.53,0.18 77.36,0.79 77.00,1.30 76.64,1.82 76.14,2.19 75.63,2.56 75.03,2.76 74.44,2.95 73.81,2.94 73.18,2.94 72.59,2.73 72.00,2.52 71.50,2.14 71.01,1.75 70.66,1.23 70.31,0.70 70.15,0.09 69.99,-0.50 70.03,-1.13 70.08,-1.76 70.08,-1.75 70.08,-1.75 70.15,-3.15 70.23,-4.55 70.17,-5.80 70.11,-7.06 69.82,-8.67 69.53,-10.29 69.35,-11.85 69.17,-13.41 69.02,-14.49 68.87,-15.57 68.82,-16.95 68.77,-18.33 68.78,-19.46 68.78,-20.58 68.78,-21.76 68.78,-22.93 68.87,-24.10 68.96,-25.27 69.20,-26.48 69.44,-27.68 69.66,-28.82 69.88,-29.96 69.88,-31.31 69.89,-32.65 69.89,-33.77 69.89,-34.89 69.87,-36.17 69.84,-37.44 69.84,-38.75 69.85,-40.06 69.83,-41.39 69.82,-42.73 69.82,-43.85 69.82,-44.97 69.82,-46.17 69.82,-47.36 69.82,-48.60 69.82,-49.83 69.82,-50.92 69.82,-52.00 69.82,-53.08 69.82,-54.15 69.82,-55.25 69.82,-56.35 69.82,-57.56 69.81,-58.76 69.60,-59.88 69.39,-60.99 69.20,-62.13 69.00,-63.27 69.00,-64.36 69.01,-65.45 68.94,-66.55 68.88,-67.64 68.72,-68.81 68.55,-69.98 68.03,-71.04 67.52,-72.10 67.09,-73.14 66.66,-74.18 66.19,-75.17 65.73,-76.16 64.74,-76.63 63.74,-77.11 62.62,-77.25 61.49,-77.39 60.30,-77.64 59.11,-77.89 57.46,-77.98 55.81,-78.07 54.31,-78.20 52.82,-78.33 51.03,-78.51 49.25,-78.69 48.03,-79.03 46.80,-79.37 45.74,-79.38 44.67,-79.39 43.44,-79.40 42.20,-79.40 40.92,-79.39 39.64,-79.37 38.04,-79.36 36.43,-79.35 34.97,-79.38 33.50,-79.40 32.30,-79.54 31.09,-79.68 29.87,-79.72 28.64,-79.75 27.00,-79.73 25.35,-79.72 24.14,-79.71 22.93,-79.71 21.42,-79.58 19.91,-79.45 18.16,-79.15 16.40,-78.84 15.31,-78.59 14.23,-78.34 13.06,-78.00 11.90,-77.67 10.66,-77.36 9.43,-77.05 7.84,-76.71 6.24,-76.36 4.96,-75.87 3.69,-75.39 2.69,-74.58 1.68,-73.78 1.18,-72.74 0.69,-71.71 0.50,-70.46 0.32,-69.20 0.25,-68.14 0.18,-67.08 0.19,-65.47 0.19,-63.86 0.16,-62.77 0.14,-61.69 0.48,-60.31 0.81,-58.93 0.81,-57.54 0.81,-56.15 0.97,-54.95 1.12,-53.75 1.24,-52.04 1.36,-50.32 1.47,-49.00 1.58,-47.68 1.57,-46.22 1.55,-44.77 1.56,-43.57 1.56,-42.38 1.59,-40.94 1.62,-39.50 1.61,-38.24 1.61,-36.97 1.64,-35.40 1.68,-33.82 1.67,-32.40 1.66,-30.98 1.64,-29.74 1.63,-28.50 1.62,-27.27 1.60,-26.03 1.59,-24.91 1.57,-23.78 1.55,-22.50 1.54,-21.21 1.51,-19.79 1.48,-18.36 1.45,-17.28 1.43,-16.20 1.46,-14.98 1.48,-13.77 1.44,-12.69 1.41,-11.62 1.51,-10.42 1.60,-9.22 1.66,-7.88 1.72,-6.53 1.82,-5.45 1.92,-4.36 2.03,-3.28 2.14,-2.19 2.29,-1.40 2.44,-0.61 2.48,-0.30 2.52,-0.00 2.48,0.29 2.44,0.59 2.34,0.87 2.23,1.16 2.06,1.41 1.89,1.66 1.66,1.86 1.43,2.06 1.16,2.21 0.90,2.35 0.60,2.42 0.31,2.50 0.00,2.50 -0.29,2.50 -0.59,2.43 -0.88,2.35 -1.15,2.21 -1.42,2.07 -1.65,1.87 -1.88,1.67 -2.05,1.42 -2.22,1.17 -2.33,0.89 -2.44,0.61 -2.44,0.61 L -2.44,0.61 Z"></path></g><g stroke-linecap="round" transform="translate(277.2738095238092 415.1187744140616) rotate(0 911.25 140)"><path d="M32 0 C502.35 2.24, 973.55 2.33, 1790.5 0 M1790.5 0 C1809.87 0.29, 1822.07 9.29, 1822.5 32 M1822.5 32 C1820.38 117.09, 1822.77 200.2, 1822.5 248 M1822.5 248 C1823.67 268.34, 1810.96 281.31, 1790.5 280 M1790.5 280 C1408.71 285.34, 1026.11 284.83, 32 280 M32 280 C9.67 279.33, 1.2 268.85, 0 248 M0 248 C1.72 192.79, 0.99 135.63, 0 32 M0 32 C-1.47 11.74, 8.79 -0.61, 32 0" stroke="#e03131" stroke-width="2.5" fill="none" stroke-dasharray="8 10"></path></g><g stroke-opacity="0.6" fill-opacity="0.6" transform="translate(289.19020941168355 418.5601844077123) rotate(0 94.207763671875 13.782716870601575)"><text x="0" y="22.181559963624323" font-family="Cascadia, Segoe UI Emoji" font-size="22.97119478433587px" fill="#e03131" text-anchor="start" style="white-space: pre;" direction="ltr" dominant-baseline="alphabetic">Security Group</text></g><g stroke-linecap="round" transform="translate(1382.4152236652233 322.55374916153596) rotate(0 390.1085858585859 230.36584595959584)"><path d="M32 0 C266.23 0, 500.47 0, 748.22 0 M32 0 C230.2 0, 428.39 0, 748.22 0 M748.22 0 C769.55 0, 780.22 10.67, 780.22 32 M748.22 0 C769.55 0, 780.22 10.67, 780.22 32 M780.22 32 C780.22 150.92, 780.22 269.84, 780.22 428.73 M780.22 32 C780.22 116.74, 780.22 201.48, 780.22 428.73 M780.22 428.73 C780.22 450.07, 769.55 460.73, 748.22 460.73 M780.22 428.73 C780.22 450.07, 769.55 460.73, 748.22 460.73 M748.22 460.73 C467.92 460.73, 187.63 460.73, 32 460.73 M748.22 460.73 C481.25 460.73, 214.28 460.73, 32 460.73 M32 460.73 C10.67 460.73, 0 450.07, 0 428.73 M32 460.73 C10.67 460.73, 0 450.07, 0 428.73 M0 428.73 C0 329.45, 0 230.17, 0 32 M0 428.73 C0 303.56, 0 178.39, 0 32 M0 32 C0 10.67, 10.67 0, 32 0 M0 32 C0 10.67, 10.67 0, 32 0" stroke="#2f9e44" stroke-width="1" fill="none"></path></g><g stroke-opacity="0.6" fill-opacity="0.6" stroke-linecap="round" transform="translate(1383.287756354318 323.167370672463) rotate(0 34.63851568814363 33.43019537344105)"><path d="M16.72 0 C26.71 0, 36.71 0, 52.56 0 M16.72 0 C26.41 0, 36.1 0, 52.56 0 M52.56 0 C63.71 0, 69.28 5.57, 69.28 16.72 M52.56 0 C63.71 0, 69.28 5.57, 69.28 16.72 M69.28 16.72 C69.28 29.19, 69.28 41.65, 69.28 50.15 M69.28 16.72 C69.28 29.94, 69.28 43.17, 69.28 50.15 M69.28 50.15 C69.28 61.29, 63.71 66.86, 52.56 66.86 M69.28 50.15 C69.28 61.29, 63.71 66.86, 52.56 66.86 M52.56 66.86 C40.85 66.86, 29.15 66.86, 16.72 66.86 M52.56 66.86 C41.11 66.86, 29.65 66.86, 16.72 66.86 M16.72 66.86 C5.57 66.86, 0 61.29, 0 50.15 M16.72 66.86 C5.57 66.86, 0 61.29, 0 50.15 M0 50.15 C0 39.78, 0 29.42, 0 16.72 M0 50.15 C0 41.72, 0 33.29, 0 16.72 M0 16.72 C0 5.57, 5.57 0, 16.72 0 M0 16.72 C0 5.57, 5.57 0, 16.72 0" stroke="#2f9e44" stroke-width="1" fill="none"></path></g><g stroke-opacity="0.6" fill-opacity="0.6" stroke-linecap="round" transform="translate(1403.8079656520063 354.5234104035451) rotate(0 14.118306390455132 11.44727545172043)"><path d="M0 0 C9.55 0, 19.11 0, 28.24 0 M0 0 C6.44 0, 12.88 0, 28.24 0 M28.24 0 C28.24 7.98, 28.24 15.96, 28.24 22.89 M28.24 0 C28.24 7.39, 28.24 14.78, 28.24 22.89 M28.24 22.89 C18.53 22.89, 8.83 22.89, 0 22.89 M28.24 22.89 C17.02 22.89, 5.8 22.89, 0 22.89 M0 22.89 C0 15.42, 0 7.94, 0 0 M0 22.89 C0 15.58, 0 8.26, 0 0" stroke="#2f9e44" stroke-width="2" fill="none"></path></g><g stroke-linecap="round"><g stroke-opacity="0.6" fill-opacity="0.6" transform="translate(1409.8268501105936 354.10585055775005) rotate(2.134459448127705 8.48964236038907 -7.571843186292995)"><path d="M0 0 C-0.08 -0.92, -0.76 -3.44, -0.46 -5.51 C-0.15 -7.57, 0.31 -10.78, 1.84 -12.39 C3.37 -14, 6.58 -15.14, 8.72 -15.14 C10.86 -15.14, 13.31 -13.77, 14.68 -12.39 C16.06 -11.01, 16.52 -8.87, 16.98 -6.88 C17.44 -4.89, 17.36 -1.53, 17.44 -0.46 M0 0 C-0.08 -0.92, -0.76 -3.44, -0.46 -5.51 C-0.15 -7.57, 0.31 -10.78, 1.84 -12.39 C3.37 -14, 6.58 -15.14, 8.72 -15.14 C10.86 -15.14, 13.31 -13.77, 14.68 -12.39 C16.06 -11.01, 16.52 -8.87, 16.98 -6.88 C17.44 -4.89, 17.36 -1.53, 17.44 -0.46" stroke="#2f9e44" stroke-width="2" fill="none"></path></g></g><mask></mask><g stroke-opacity="0.6" fill-opacity="0.6" stroke-linecap="round" transform="translate(1414.1841143699066 360.29871316523054) rotate(0 3.67119669638447 3.6711966963844134)"><path d="M7.34 3.67 C7.34 3.88, 7.32 4.1, 7.29 4.31 C7.25 4.52, 7.19 4.73, 7.12 4.93 C7.05 5.13, 6.96 5.32, 6.85 5.51 C6.74 5.69, 6.62 5.87, 6.48 6.03 C6.35 6.19, 6.19 6.35, 6.03 6.48 C5.87 6.62, 5.69 6.74, 5.51 6.85 C5.32 6.96, 5.13 7.05, 4.93 7.12 C4.73 7.19, 4.52 7.25, 4.31 7.29 C4.1 7.32, 3.88 7.34, 3.67 7.34 C3.46 7.34, 3.24 7.32, 3.03 7.29 C2.82 7.25, 2.62 7.19, 2.42 7.12 C2.22 7.05, 2.02 6.96, 1.84 6.85 C1.65 6.74, 1.47 6.62, 1.31 6.48 C1.15 6.35, 1 6.19, 0.86 6.03 C0.72 5.87, 0.6 5.69, 0.49 5.51 C0.39 5.32, 0.29 5.13, 0.22 4.93 C0.15 4.73, 0.09 4.52, 0.06 4.31 C0.02 4.1, 0 3.88, 0 3.67 C0 3.46, 0.02 3.24, 0.06 3.03 C0.09 2.82, 0.15 2.62, 0.22 2.42 C0.29 2.22, 0.39 2.02, 0.49 1.84 C0.6 1.65, 0.72 1.47, 0.86 1.31 C1 1.15, 1.15 1, 1.31 0.86 C1.47 0.72, 1.65 0.6, 1.84 0.49 C2.02 0.39, 2.22 0.29, 2.42 0.22 C2.62 0.15, 2.82 0.09, 3.03 0.06 C3.24 0.02, 3.46 0, 3.67 0 C3.88 0, 4.1 0.02, 4.31 0.06 C4.52 0.09, 4.73 0.15, 4.93 0.22 C5.13 0.29, 5.32 0.39, 5.51 0.49 C5.69 0.6, 5.87 0.72, 6.03 0.86 C6.19 1, 6.35 1.15, 6.48 1.31 C6.62 1.47, 6.74 1.65, 6.85 1.84 C6.96 2.02, 7.05 2.22, 7.12 2.42 C7.19 2.62, 7.25 2.82, 7.29 3.03 C7.32 3.24, 7.33 3.56, 7.34 3.67 C7.35 3.78, 7.35 3.56, 7.34 3.67" stroke="#2f9e44" stroke-width="2" fill="none"></path></g><g stroke-linecap="round"><g stroke-opacity="0.6" fill-opacity="0.6" transform="translate(1417.8598747015776 367.8728381691824) rotate(0 0 3.441746902860473)"><path d="M0 0 C0 1.15, 0 5.74, 0 6.88 M0 0 C0 1.15, 0 5.74, 0 6.88" stroke="#2f9e44" stroke-width="2" fill="none"></path></g></g><mask></mask><g stroke-opacity="0.6" fill-opacity="0.6" transform="translate(1463.0274153413088 344.16682123749206) rotate(0 48.52294921875 12.43074480841176)"><text x="0" y="20.005729926037628" font-family="Cascadia, Segoe UI Emoji" font-size="20.71790801401955px" fill="#2f9e44" text-anchor="start" style="white-space: pre;" direction="ltr" dominant-baseline="alphabetic">subnet 2</text></g><g stroke-linecap="round" transform="translate(214.41522366522327 322.5537491615355) rotate(0 390.10858585858585 230.36584595959584)"><path d="M32 0 C199.89 0, 367.79 0, 748.22 0 M32 0 C286.34 0, 540.68 0, 748.22 0 M748.22 0 C769.55 0, 780.22 10.67, 780.22 32 M748.22 0 C769.55 0, 780.22 10.67, 780.22 32 M780.22 32 C780.22 137.06, 780.22 242.12, 780.22 428.73 M780.22 32 C780.22 155.52, 780.22 279.03, 780.22 428.73 M780.22 428.73 C780.22 450.07, 769.55 460.73, 748.22 460.73 M780.22 428.73 C780.22 450.07, 769.55 460.73, 748.22 460.73 M748.22 460.73 C482.51 460.73, 216.81 460.73, 32 460.73 M748.22 460.73 C577.35 460.73, 406.47 460.73, 32 460.73 M32 460.73 C10.67 460.73, 0 450.07, 0 428.73 M32 460.73 C10.67 460.73, 0 450.07, 0 428.73 M0 428.73 C0 314.71, 0 200.69, 0 32 M0 428.73 C0 307.99, 0 187.25, 0 32 M0 32 C0 10.67, 10.67 0, 32 0 M0 32 C0 10.67, 10.67 0, 32 0" stroke="#2f9e44" stroke-width="1" fill="none"></path></g><g stroke-opacity="0.6" fill-opacity="0.6" stroke-linecap="round" transform="translate(215.85723359803774 321.8666756275577) rotate(0 34.63851568814363 33.43019537344105)"><path d="M16.72 0 C26.69 0, 36.66 0, 52.56 0 M16.72 0 C28.02 0, 39.33 0, 52.56 0 M52.56 0 C63.71 0, 69.28 5.57, 69.28 16.72 M52.56 0 C63.71 0, 69.28 5.57, 69.28 16.72 M69.28 16.72 C69.28 29.65, 69.28 42.58, 69.28 50.15 M69.28 16.72 C69.28 27.77, 69.28 38.83, 69.28 50.15 M69.28 50.15 C69.28 61.29, 63.71 66.86, 52.56 66.86 M69.28 50.15 C69.28 61.29, 63.71 66.86, 52.56 66.86 M52.56 66.86 C40.49 66.86, 28.42 66.86, 16.72 66.86 M52.56 66.86 C42.45 66.86, 32.33 66.86, 16.72 66.86 M16.72 66.86 C5.57 66.86, 0 61.29, 0 50.15 M16.72 66.86 C5.57 66.86, 0 61.29, 0 50.15 M0 50.15 C0 40.74, 0 31.33, 0 16.72 M0 50.15 C0 40.4, 0 30.65, 0 16.72 M0 16.72 C0 5.57, 5.57 0, 16.72 0 M0 16.72 C0 5.57, 5.57 0, 16.72 0" stroke="#2f9e44" stroke-width="1" fill="none"></path></g><g stroke-opacity="0.6" fill-opacity="0.6" stroke-linecap="round" transform="translate(236.3774428957263 353.22271535864024) rotate(0 14.118306390455132 11.44727545172043)"><path d="M0 0 C9.61 0, 19.23 0, 28.24 0 M0 0 C5.98 0, 11.96 0, 28.24 0 M28.24 0 C28.24 5.89, 28.24 11.78, 28.24 22.89 M28.24 0 C28.24 7.82, 28.24 15.64, 28.24 22.89 M28.24 22.89 C19.03 22.89, 9.82 22.89, 0 22.89 M28.24 22.89 C19.9 22.89, 11.57 22.89, 0 22.89 M0 22.89 C0 17, 0 11.11, 0 0 M0 22.89 C0 16.43, 0 9.96, 0 0" stroke="#2f9e44" stroke-width="2" fill="none"></path></g><g stroke-linecap="round"><g stroke-opacity="0.6" fill-opacity="0.6" transform="translate(242.39632735431337 352.8051555128452) rotate(2.134459448127705 8.489642360389041 -7.571843186292995)"><path d="M0 0 C-0.08 -0.92, -0.76 -3.44, -0.46 -5.51 C-0.15 -7.57, 0.31 -10.78, 1.84 -12.39 C3.37 -14, 6.58 -15.14, 8.72 -15.14 C10.86 -15.14, 13.31 -13.77, 14.68 -12.39 C16.06 -11.01, 16.52 -8.87, 16.98 -6.88 C17.44 -4.89, 17.36 -1.53, 17.44 -0.46 M0 0 C-0.08 -0.92, -0.76 -3.44, -0.46 -5.51 C-0.15 -7.57, 0.31 -10.78, 1.84 -12.39 C3.37 -14, 6.58 -15.14, 8.72 -15.14 C10.86 -15.14, 13.31 -13.77, 14.68 -12.39 C16.06 -11.01, 16.52 -8.87, 16.98 -6.88 C17.44 -4.89, 17.36 -1.53, 17.44 -0.46" stroke="#2f9e44" stroke-width="2" fill="none"></path></g></g><mask></mask><g stroke-opacity="0.6" fill-opacity="0.6" stroke-linecap="round" transform="translate(246.75359161362644 358.9980181203257) rotate(0 3.67119669638447 3.6711966963844134)"><path d="M7.34 3.67 C7.34 3.88, 7.32 4.1, 7.29 4.31 C7.25 4.52, 7.19 4.73, 7.12 4.93 C7.05 5.13, 6.96 5.32, 6.85 5.51 C6.74 5.69, 6.62 5.87, 6.48 6.03 C6.35 6.19, 6.19 6.35, 6.03 6.48 C5.87 6.62, 5.69 6.74, 5.51 6.85 C5.32 6.96, 5.13 7.05, 4.93 7.12 C4.73 7.19, 4.52 7.25, 4.31 7.29 C4.1 7.32, 3.88 7.34, 3.67 7.34 C3.46 7.34, 3.24 7.32, 3.03 7.29 C2.82 7.25, 2.62 7.19, 2.42 7.12 C2.22 7.05, 2.02 6.96, 1.84 6.85 C1.65 6.74, 1.47 6.62, 1.31 6.48 C1.15 6.35, 1 6.19, 0.86 6.03 C0.72 5.87, 0.6 5.69, 0.49 5.51 C0.39 5.32, 0.29 5.13, 0.22 4.93 C0.15 4.73, 0.09 4.52, 0.06 4.31 C0.02 4.1, 0 3.88, 0 3.67 C0 3.46, 0.02 3.24, 0.06 3.03 C0.09 2.82, 0.15 2.62, 0.22 2.42 C0.29 2.22, 0.39 2.02, 0.49 1.84 C0.6 1.65, 0.72 1.47, 0.86 1.31 C1 1.15, 1.15 1, 1.31 0.86 C1.47 0.72, 1.65 0.6, 1.84 0.49 C2.02 0.39, 2.22 0.29, 2.42 0.22 C2.62 0.15, 2.82 0.09, 3.03 0.06 C3.24 0.02, 3.46 0, 3.67 0 C3.88 0, 4.1 0.02, 4.31 0.06 C4.52 0.09, 4.73 0.15, 4.93 0.22 C5.13 0.29, 5.32 0.39, 5.51 0.49 C5.69 0.6, 5.87 0.72, 6.03 0.86 C6.19 1, 6.35 1.15, 6.48 1.31 C6.62 1.47, 6.74 1.65, 6.85 1.84 C6.96 2.02, 7.05 2.22, 7.12 2.42 C7.19 2.62, 7.25 2.82, 7.29 3.03 C7.32 3.24, 7.33 3.56, 7.34 3.67 C7.35 3.78, 7.35 3.56, 7.34 3.67" stroke="#2f9e44" stroke-width="2" fill="none"></path></g><g stroke-linecap="round"><g stroke-opacity="0.6" fill-opacity="0.6" transform="translate(250.42935194529764 366.57214312427755) rotate(0 0 3.441746902860473)"><path d="M0 0 C0 1.15, 0 5.74, 0 6.88 M0 0 C0 1.15, 0 5.74, 0 6.88" stroke="#2f9e44" stroke-width="2" fill="none"></path></g></g><mask></mask><g stroke-opacity="0.6" fill-opacity="0.6" transform="translate(295.0414185809053 342.866126192587) rotate(0 48.52294921875 12.43074480841176)"><text x="0" y="20.005729926037628" font-family="Cascadia, Segoe UI Emoji" font-size="20.71790801401955px" fill="#2f9e44" text-anchor="start" style="white-space: pre;" direction="ltr" dominant-baseline="alphabetic">subnet 1</text></g></svg>